<?xml version="1.0" encoding="UTF-8" standalone="no"?>
<!-- Created with Inkscape (http://www.inkscape.org/) -->

<svg
   version="1.1"
   id="svg2312"
   width="1200"
   height="2550"
   viewBox="0 0 1200 2550"
   sodipodi:docname="bétées.svg"
   inkscape:version="1.2.2 (732a01da63, 2022-12-09)"
   xmlns:inkscape="http://www.inkscape.org/namespaces/inkscape"
   xmlns:sodipodi="http://sodipodi.sourceforge.net/DTD/sodipodi-0.dtd"
   xmlns="http://www.w3.org/2000/svg"
   xmlns:svg="http://www.w3.org/2000/svg">
  <defs
     id="defs2316" />
  <sodipodi:namedview
     id="namedview2314"
     pagecolor="#ffffff"
     bordercolor="#000000"
     borderopacity="0.25"
     inkscape:showpageshadow="2"
     inkscape:pageopacity="0.0"
     inkscape:pagecheckerboard="0"
     inkscape:deskcolor="#d1d1d1"
     showgrid="false"
     inkscape:zoom="0.1767767"
     inkscape:cx="3470.48"
     inkscape:cy="1518.8653"
     inkscape:window-width="1396"
     inkscape:window-height="1032"
     inkscape:window-x="551"
     inkscape:window-y="52"
     inkscape:window-maximized="0"
     inkscape:current-layer="g2318" />
  <g
     inkscape:groupmode="layer"
     inkscape:label="Image"
     id="g2318">
    <path
       style="fill:#ffffff;fill-opacity:1"
       d="m 1814.8021,2537.67 v -226.0394 l 79.75,0.3183 c 88.0959,0.3516 83.6685,0.04 98.0409,6.8993 8.848,4.2228 18.8626,14.2085 23.4986,23.4307 7.2151,14.3528 7.0165,12.2433 7.4481,79.1236 0.4291,66.491 0.089,71.6702 -5.4957,83.6036 -3.0731,6.567 -11.5669,16.5186 -19.389,22.7164 l -4.647,3.6822 7.5167,4.9023 c 17.9382,11.6991 26.2067,27.2257 28.3709,53.2742 0.6292,7.5737 0.9058,34.2421 0.691,66.6282 -0.3474,52.3932 -0.4232,54.1934 -2.5448,60.5 -6.0978,18.1253 -21.5128,33.6879 -41.275,41.6703 -13.0178,5.2581 -13.6592,5.2937 -95.7147,5.3123 l -76.25,0.017 z m 136,155.7607 c 1.375,-0.687 3.2974,-2.8179 4.272,-4.7352 1.6374,-3.2211 1.7514,-7.2865 1.5,-53.4861 -0.2993,-55.0179 -0.1062,-53.2552 -6.653,-60.7117 -5.8724,-6.6882 -7.8928,-7.1419 -33.869,-7.6057 l -23.25,-0.4151 v 64.1163 64.1162 l 27.75,-0.015 c 20.1635,-0.011 28.4334,-0.3563 30.25,-1.264 z m -4.8351,-197.5774 3.1966,-2.8561 0.4486,-38.4748 c 0.2467,-21.1612 0.1162,-45.1239 -0.2901,-53.2504 -0.7149,-14.3018 -0.8286,-14.8765 -3.5462,-17.9191 l -2.8077,-3.1435 -25.5831,-0.3383 -25.583,-0.3382 v 59.5882 59.5883 h 25.4842 25.4842 z m 899.835,266.7696 c -2.475,-0.477 -8.3194,-2.7525 -12.9876,-5.0566 -16.0906,-7.9419 -30.1483,-25.2912 -33.0136,-40.7434 -1.0702,-5.7717 -1.4289,-97.8289 -0.3918,-100.5317 0.5381,-1.4022 4.7274,-1.5818 36.893,-1.5818 32.1656,0 36.3549,0.1796 36.893,1.5818 0.3339,0.87 0.607,17.9488 0.607,37.9529 0,24.5259 0.3616,37.1648 1.1103,38.808 1.9031,4.1769 4.6698,4.6582 26.6868,4.6426 22.9685,-0.016 24.596,-0.3714 27.5046,-5.9992 1.6675,-3.2264 1.7792,-6.6523 1.5,-45.9861 l -0.3017,-42.5 -2.7118,-4.6128 c -1.4915,-2.5371 -4.2635,-5.9753 -6.16,-7.6405 -6.5843,-5.7811 -23.2294,-17.11 -41.6282,-28.3326 -24.9885,-15.2422 -36.3237,-23.4898 -49.1758,-35.781 -12.3411,-11.8025 -19.1172,-20.3408 -24.7076,-31.1331 -7.1015,-13.7094 -7.1187,-13.8933 -7.0992,-76.0639 0.019,-61.5873 0.1727,-63.4063 6.3896,-75.7512 6.5844,-13.0752 18.139,-23.1436 33.3514,-29.0621 l 6.7416,-2.6228 h 56 c 50.4166,0 56.6481,0.1762 62.5,1.7668 16.2993,4.4303 27.9543,13.5572 34.3844,26.926 6.7548,14.0438 6.9129,15.432 7.3514,64.5572 l 0.3949,44.25 h -36.5653 c -20.111,0 -36.6205,-0.1125 -36.6878,-0.25 -0.067,-0.1375 -0.4047,-14.5259 -0.75,-31.9743 -0.6188,-31.2796 -0.6595,-31.7561 -2.9054,-34 -2.2336,-2.2316 -2.7102,-2.2757 -24.5986,-2.2757 -24.3194,0 -25.8954,0.3043 -29.0267,5.6052 -1.5602,2.6413 -1.749,6.5142 -1.8117,37.1716 -0.046,22.5524 0.3146,35.6054 1.0579,38.2763 2.4487,8.7989 8.2746,13.3291 57.1569,44.4441 15.125,9.6275 30.875,20.0542 35,23.1705 19.717,14.8956 31.1324,29.9978 36.6152,48.4407 1.5668,5.2704 1.7908,12.4234 2.1244,67.8397 0.4214,69.9907 0.42,70.0076 -6.9749,84.7821 -5.6144,11.2173 -14.5225,20.0664 -25.8514,25.68 -13.5153,6.6971 -17.0469,7.0313 -73.4133,6.9453 -26.95,-0.041 -51.025,-0.4649 -53.5,-0.942 z m -472.9999,-190.4135 v -190.5 h -33.0497 c -38.7248,0 -37.3569,0.3051 -41.2931,-9.2083 -4.9088,-11.8639 -22.9151,-57.291 -23.4029,-59.0417 -0.4626,-1.6604 6.356,-1.75 133.129,-1.75 73.4892,0 133.6167,0.1953 133.6167,0.4339 0,0.2387 -3.646,10.9262 -8.1023,23.75 -4.4562,12.8239 -9.4204,27.4571 -11.0315,32.5183 -4.5296,14.2293 -1.5874,13.2978 -42.0011,13.2978 h -33.8651 v 190.5 190.5 h -37 -37 z m -567,-1373.0852 V 213.6466 l 11.25,8.87044 c 6.1875,4.87874 40.275,31.74684 75.75,59.70689 35.475,27.96005 107.7,84.90179 160.5,126.53721 52.8,41.63541 141.675,111.68041 197.5,155.65553 64.0089,50.42186 102.5131,81.40236 104.2429,83.8738 1.5086,2.15545 3.1387,6.169 3.6225,8.919 0.501,2.84783 0.8268,287.57955 0.7571,661.49993 l -0.1225,656.5 -2.0512,3.5 c -1.1281,1.925 -3.8281,4.4712 -6,5.6581 -2.1718,1.187 -55.9238,21.1452 -119.4488,44.3516 -63.525,23.2063 -183,66.9489 -265.5,97.2057 -82.5,30.2568 -152.3625,55.8369 -155.25,56.8446 l -5.25,1.8323 z m 1167.4999,973.9315 c -42.8945,-15.8239 -301.5973,-110.7713 -418.937,-153.7556 -72.7772,-26.6599 -97.5758,-36.149 -99.5,-38.0732 l -2.5629,-2.5629 -0.2523,-661.578 c -0.2448,-642.14668 -0.1978,-661.70094 1.6003,-665.76588 1.6353,-3.6969 14.5627,-14.20457 110.2522,-89.61556 59.6199,-46.98517 181.7498,-143.27739 271.3997,-213.98268 89.65,-70.7053 164.4625,-129.58863 166.25,-130.85184 l 3.25,-2.29675 v 985.06811 c 0,541.7874 -0.1125,985.019 -0.25,984.9592 -0.1375,-0.06 -14.2,-5.2551 -31.25,-11.5449 z"
       id="path3519" />
  </g>
</svg>
